<svg width="129" height="94" viewBox="0 0 129 94" fill="none" xmlns="http://www.w3.org/2000/svg">
<path fill-rule="evenodd" clip-rule="evenodd" d="M10.704 93.0565C10.5473 83.7595 10.6292 62.4073 10.6389 59.7421C10.6574 55.1048 10.2089 54.6176 14.5483 50.2984C17.9264 46.9361 18.1659 47.2101 21.2796 44.1787C28.2689 37.3746 29.3419 35.7103 32.0577 35.7071C51.763 35.683 51.7453 35.9755 71.4417 35.8762C74.9058 35.8585 77.0879 35.776 80.282 35.7712C80.5392 35.7704 82.9552 35.7672 83.497 35.7031C85.4251 35.4731 85.434 35.3433 86.0223 35.522C86.1798 35.5693 87.506 36.1855 85.1784 37.3899C82.7559 38.6423 81.6283 38.9645 79.2596 41.9438C76.6716 45.2004 77.4488 47.223 74.6615 47.2702C70.4426 47.3423 70.257 47.0122 69.7796 47.6877C69.2804 48.3929 69.7739 48.4129 70.0777 49.2319C70.8614 51.341 70.1388 57.8878 70.4008 61.3656C70.5825 63.772 70.1806 63.7688 70.3816 66.1799C70.5343 68.0134 70.2706 69.1384 70.31 70.1762C70.3341 70.8132 70.5077 75.4401 70.3462 78.1414C70.2988 78.9451 70.4893 83.0911 70.2618 85.3397C69.8977 88.932 70.1846 91.5692 69.9821 92.6382C69.9387 92.8665 69.8029 93.0717 69.7595 93.3001C69.5071 93.3658 69.4042 93.6542 68.246 93.6919C64.6131 93.8105 64.6702 93.2888 63.4356 93.123C63.2532 93.0989 60.9151 93.0116 56.9631 93.1077C55.8122 93.1358 55.8291 93.0805 54.6821 93.0524C54.093 91.4121 54.2385 91.3817 54.2369 87.7877C54.2296 75.2325 54.2232 62.6781 54.2168 50.1238C54.2168 49.925 54.2192 48.0676 53.8036 47.6749C53.3142 47.2125 53.2121 47.2318 40.8988 47.2374C33.3196 47.2414 29.1353 46.864 26.8567 50.7232C26.585 51.1823 25.6841 52.7088 25.9646 57.3285C26.0811 59.2469 27.2931 59.1523 28.035 59.1579C30.2212 59.1747 45.7856 59.1451 47.3295 59.1419C48.556 59.1395 49.3509 59.0089 49.9127 59.585C50.2101 59.8903 50.3307 59.9376 50.2897 68.5527C50.2889 68.7514 50.2801 70.5744 49.7624 70.9895C49.2561 71.395 49.1621 71.193 32.0585 71.2339C30.2011 71.2387 26.8471 71.1594 26.3487 71.6754C25.8818 72.1602 25.9605 72.278 25.9622 81.3763C25.9646 92.3986 25.9959 92.4026 25.9324 92.6854C25.877 92.9355 25.6776 93.1382 25.6214 93.3882C25.2324 93.4635 25.2742 93.6799 24.0292 93.6967C21.286 93.7336 21.3165 93.5356 20.0434 93.2352C18.1482 92.788 16.2884 93.2784 15.9733 93.3618C15.6582 93.4443 13.767 93.9435 11.9192 93.6735C11.007 93.5397 10.8205 93.1157 10.704 93.0565Z" fill="#001D4C"/>
<path fill-rule="evenodd" clip-rule="evenodd" d="M73.7122 92.8281C73.5057 92.3241 73.2645 92.381 73.2517 90.9875C73.2444 90.2262 73.1713 82.0198 73.3272 81.4717C73.3441 81.4116 73.7982 80.6527 74.6108 80.7874C74.9267 80.8403 75.2096 81.0205 75.5206 81.0975C76.4031 81.3146 78.4647 81.0718 79.4951 81.1135C81.2127 81.1832 101.964 81.5166 105.281 80.9605C107.439 80.5983 107.679 81.3763 109.446 80.0798C110.907 79.0092 114.327 78.3738 111.779 74.0714C109.969 71.016 103.889 70.9479 101.129 70.3693C96.3431 69.366 96.2643 69.7972 91.5568 68.4822C89.23 67.8323 85.1406 67.1856 80.9885 62.2222C76.9007 57.3341 77.714 46.4144 83.46 41.2691C85.3986 39.5334 90.1551 36.8995 93.911 36.2969C98.0567 35.631 98.076 35.9772 120.47 35.7993C122.258 35.7848 124.271 35.7568 124.613 36.4099C125.086 37.3146 124.938 38.8731 124.944 44.5161C124.947 46.9537 125.328 47.9161 122.88 47.9065C100.736 47.8256 100.725 47.7342 98.8266 48.0451C96.6798 48.3961 93.6064 49.6558 93.7968 52.5406C93.8877 53.9125 94.0484 55.8429 98.7865 57.278C98.9078 57.3141 103.168 58.2212 103.549 58.3021C107.393 59.1203 107.495 58.5201 113.181 59.9649C115.693 60.6027 119.614 60.989 123.994 65.0084C126.716 67.507 127.379 70.2002 127.971 73.3094C128.706 77.175 127.746 83.4534 123.411 87.4945C119.701 90.953 115.194 91.901 113.994 92.2511C111.961 92.534 112.003 92.7007 109.984 93.0052C109.397 93.0941 109.41 93.0469 84.3007 93.0677C75.4314 93.0749 75.4346 93.1791 74.6679 93.103C74.3375 93.0709 74.0418 92.861 73.7122 92.8281Z" fill="#001D4C"/>
<path fill-rule="evenodd" clip-rule="evenodd" d="M69.0875 0.739658C69.2097 0.709207 70.6154 0.36063 70.6154 0.36063C72.7003 -0.348544 73.0347 0.106609 74.4983 0.710009C75.1935 1.72289 75.4354 1.61791 75.5873 2.83272C75.7762 4.34082 75.5705 4.33121 75.2096 6.81532C75.1067 7.52529 75.2498 7.92035 75.0199 9.33309C74.7651 10.8973 74.8945 10.8965 74.618 12.4551C74.2073 14.7733 74.2789 14.7829 74.2226 14.9792C73.7942 16.4753 72.3314 16.0362 72.1554 15.9833C70.748 15.561 70.7288 13.4671 70.7006 13.2484C70.6813 13.0945 70.3839 10.7586 68.9678 12.3789C68.3971 13.032 68.4397 13.048 67.8674 13.7123C67.652 13.9624 56.2156 25.6898 53.4588 28.1579C49.3268 31.8576 48.6348 28.9824 36.2556 21.7384C33.8372 20.3233 33.8774 22.1271 19.4583 35.97C7.79042 47.1717 7.96885 47.3488 6.94569 48.3136C3.18902 51.8539 1.06876 49.1246 0.521412 48.639C0.420945 48.5492 0.23287 48.562 0.167767 48.4443C-0.0765695 47.9979 -0.0371862 45.8135 0.177412 45.3912C0.214384 45.3175 0.281094 45.3784 0.887917 44.65C1.17003 44.3118 5.60104 39.8861 6.49801 39.0896C14.9389 31.5948 16.7826 28.2244 22.9328 23.3403C23.7824 22.6656 29.4801 16.7894 31.9403 14.7244C32.2458 14.468 34.0341 12.9671 36.8857 14.0521C37.8888 14.4335 48.757 22.1183 49.7351 22.1591C50.6104 22.196 51.1746 21.3866 56.9503 15.6443C59.1678 13.4391 59.1268 13.4142 61.3314 11.1938C64.1485 8.35627 66.2728 6.73038 66.2736 6.6863C66.2793 6.44671 65.8227 5.60051 65.7416 5.59089C65.67 5.58288 63.4951 6.21753 63.4179 6.23115C60.8251 6.68951 60.5165 4.48586 60.5173 4.43538C60.5599 2.71012 62.2614 3.02023 69.0875 0.739658Z" fill="#05B03C"/>
</svg>
