<svg width="309" height="94" viewBox="0 0 309 94" fill="none" xmlns="http://www.w3.org/2000/svg">
<g clip-path="url(#clip0_144_306)">
<path fill-rule="evenodd" clip-rule="evenodd" d="M10.7041 93.0567C10.5474 83.7597 10.6294 62.4075 10.639 59.7423C10.6575 55.105 10.209 54.6178 14.5484 50.2987C17.9265 46.9363 18.166 47.2103 21.2797 44.1789C28.269 37.3749 29.342 35.7105 32.0578 35.7073C51.7631 35.6832 51.7454 35.9757 71.4418 35.8764C74.9059 35.8587 77.0881 35.7762 80.2821 35.7714C80.5393 35.7706 82.9554 35.7674 83.4971 35.7033C85.4252 35.4733 85.4341 35.3435 86.0224 35.5222C86.18 35.5695 87.5061 36.1857 85.1785 37.3901C82.756 38.6426 81.6284 38.9647 79.2598 41.944C76.6717 45.2006 77.4489 47.2232 74.6616 47.2704C70.4428 47.3426 70.2571 47.0124 69.7797 47.6879C69.2806 48.3931 69.774 48.4131 70.0779 49.2321C70.8615 51.3412 70.1389 57.888 70.401 61.3658C70.5826 63.7722 70.1807 63.769 70.3817 66.1802C70.5344 68.0136 70.2708 69.1387 70.3101 70.1764C70.3343 70.8134 70.5079 75.4403 70.3463 78.1416C70.2989 78.9453 70.4894 83.0914 70.2619 85.3399C69.8978 88.9322 70.1848 91.5694 69.9822 92.6384C69.9388 92.8667 69.803 93.0719 69.7596 93.3003C69.5072 93.366 69.4043 93.6545 68.2461 93.6921C64.6132 93.8107 64.6703 93.289 63.4358 93.1232C63.2533 93.0991 60.9152 93.0118 56.9633 93.1079C55.8123 93.136 55.8292 93.0807 54.6823 93.0527C54.0931 91.4123 54.2386 91.3819 54.237 87.7879C54.2298 75.2327 54.2233 62.6784 54.2169 50.124C54.2169 49.9252 54.2193 48.0678 53.8038 47.6751C53.3143 47.2127 53.2122 47.232 40.8989 47.2376C33.3197 47.2416 29.1354 46.8642 26.8568 50.7234C26.5852 51.1825 25.6842 52.709 25.9647 57.3287C26.0812 59.2471 27.2933 59.1525 28.0351 59.1581C30.2213 59.175 45.7857 59.1453 47.3297 59.1421C48.5562 59.1397 49.3511 59.0091 49.9129 59.5852C50.2103 59.8905 50.3308 59.9378 50.2898 68.5529C50.289 68.7516 50.2802 70.5746 49.7626 70.9897C49.2562 71.3952 49.1622 71.1933 32.0586 71.2341C30.2012 71.2389 26.8472 71.1596 26.3489 71.6757C25.8819 72.1605 25.9607 72.2783 25.9623 81.3765C25.9647 92.3988 25.996 92.4028 25.9325 92.6856C25.8771 92.9357 25.6778 93.1384 25.6215 93.3884C25.2325 93.4637 25.2743 93.6801 24.0293 93.6969C21.2861 93.7338 21.3167 93.5359 20.0435 93.2354C18.1483 92.7882 16.2885 93.2786 15.9734 93.362C15.6583 93.4445 13.7672 93.9437 11.9194 93.6737C11.0071 93.5399 10.8206 93.116 10.7041 93.0567Z" fill="#001D4C"/>
<path fill-rule="evenodd" clip-rule="evenodd" d="M73.7123 92.8283C73.5058 92.3242 73.2647 92.3811 73.2518 90.9876C73.2446 90.2264 73.1714 82.02 73.3274 81.4719C73.3442 81.4118 73.7983 80.6529 74.6109 80.7875C74.9268 80.8404 75.2097 81.0207 75.5208 81.0977C76.4033 81.3148 78.4649 81.072 79.4952 81.1137C81.2128 81.1834 101.965 81.5168 105.282 80.9606C107.439 80.5984 107.679 81.3765 109.447 80.08C110.907 79.0094 114.327 78.374 111.779 74.0716C109.969 71.0162 103.889 70.9481 101.129 70.3695C96.3432 69.3662 96.2644 69.7973 91.5569 68.4824C89.2301 67.8325 85.1407 67.1858 80.9886 62.2224C76.9008 57.3343 77.7142 46.4146 83.4601 41.2693C85.3987 39.5336 90.1552 36.8997 93.9111 36.2971C98.0568 35.6312 98.0761 35.9773 120.47 35.7994C122.258 35.785 124.272 35.757 124.613 36.4101C125.086 37.3148 124.938 38.8733 124.944 44.5163C124.947 46.9539 125.328 47.9163 122.88 47.9067C100.736 47.8258 100.725 47.7344 98.8268 48.0453C96.68 48.3963 93.6065 49.656 93.797 52.5408C93.8878 53.9126 94.0485 55.843 98.7866 57.2782C98.9079 57.3143 103.169 58.2214 103.55 58.3023C107.393 59.1205 107.495 58.5203 113.182 59.9651C115.693 60.6029 119.614 60.9892 123.994 65.0086C126.716 67.5072 127.38 70.2004 127.971 73.3096C128.707 77.1752 127.746 83.4536 123.411 87.4947C119.701 90.9532 115.194 91.9011 113.994 92.2513C111.961 92.5342 112.003 92.7009 109.984 93.0054C109.397 93.0943 109.41 93.047 84.3008 93.0679C75.4315 93.0751 75.4348 93.1793 74.668 93.1031C74.3377 93.0711 74.0419 92.8611 73.7123 92.8283Z" fill="#001D4C"/>
<path fill-rule="evenodd" clip-rule="evenodd" d="M69.0878 0.739841C69.2099 0.70939 70.6157 0.360813 70.6157 0.360813C72.7006 -0.348361 73.0349 0.106792 74.4985 0.710192C75.1938 1.72307 75.4357 1.61809 75.5876 2.83291C75.7765 4.341 75.5707 4.33139 75.2098 6.8155C75.107 7.52548 75.25 7.92053 75.0202 9.33327C74.7654 10.8975 74.8948 10.8967 74.6183 12.4552C74.2076 14.7735 74.2791 14.7831 74.2228 14.9794C73.7944 16.4755 72.3316 16.0364 72.1556 15.9835C70.7483 15.5612 70.729 13.4673 70.7009 13.2486C70.6816 13.0947 70.3842 10.7588 68.968 12.3791C68.3973 13.0322 68.4399 13.0482 67.8677 13.7125C67.6523 13.9625 56.2159 25.69 53.4591 28.158C49.3271 31.8578 48.635 28.9826 36.2559 21.7386C33.8374 20.3235 33.8776 22.1273 19.4585 35.9702C7.79066 47.1719 7.96909 47.349 6.94594 48.3138C3.18926 51.8541 1.069 49.1248 0.521656 48.6392C0.421189 48.5494 0.233114 48.5622 0.168011 48.4444C-0.0763253 47.9981 -0.0369421 45.8137 0.177656 45.3914C0.214628 45.3177 0.281338 45.3786 0.888161 44.6502C1.17027 44.312 5.60128 39.8863 6.49825 39.0897C14.9391 31.5949 16.7829 28.2246 22.9331 23.3405C23.7826 22.6657 29.4803 16.7896 31.9406 14.7246C32.246 14.4682 34.0343 12.9673 36.886 14.0523C37.8891 14.4337 48.7572 22.1184 49.7354 22.1593C50.6106 22.1962 51.1749 21.3868 56.9505 15.6445C59.168 13.4393 59.127 13.4144 61.3317 11.194C64.1488 8.35645 66.2731 6.73056 66.2739 6.68649C66.2795 6.44689 65.823 5.60069 65.7418 5.59107C65.6703 5.58306 63.4953 6.21771 63.4182 6.23133C60.8253 6.68969 60.5167 4.48604 60.5175 4.43556C60.5601 2.7103 62.2616 3.02042 69.0878 0.739841Z" fill="#05B03C"/>
<path fill-rule="evenodd" clip-rule="evenodd" d="M307.513 87.0756C308.524 89.252 308.853 89.1758 308.881 90.99C308.905 92.5582 308.8 93.3532 306.936 93.3964C304.827 93.4453 304.523 92.8203 304.059 92.2874C303.961 92.0766 302.899 89.6991 302.497 89.1358C301.64 87.9354 300.349 88.2311 298.898 88.2319C294.8 88.2327 293.496 87.9947 292.833 88.8649C292.062 89.8778 291.56 92.7962 291.5 93.1504C291.274 93.1993 291.1 93.398 290.874 93.4469C290.309 93.5711 290.307 93.3243 283.628 93.2818C271.031 93.2009 271.049 93.5423 269.956 93.4966C269.85 93.4918 269.075 93.4597 268.873 92.7457C268.789 92.4501 268.869 92.1239 268.784 91.8274C268.767 78.515 268.711 78.5262 268.739 77.3699C268.873 71.7422 268.537 71.5923 269.165 70.9641C269.714 70.4144 269.851 70.7557 281.216 70.5466C284.38 70.4881 285.595 70.2293 285.399 73.3721C285.224 76.1487 283.483 75.2191 276.405 75.2985C273.215 75.3345 274.855 78.894 274.863 78.9028C275.665 79.7546 281.513 78.9237 282.95 79.5575C284.009 80.0239 283.649 83.1771 283.374 83.6138C282.636 84.7862 276.813 83.8855 275.487 84.2837C275.262 84.351 274.015 84.7261 274.52 87.0451C274.821 88.4258 276.306 88.3665 282.823 88.1686C285.722 88.0804 285.399 89.1398 285.42 90.1446C285.452 91.6656 285.251 91.6864 285.336 91.7866C285.495 91.9725 285.796 91.6014 286.039 91.5742C286.215 91.5542 286.436 91.7681 286.566 91.6471C286.751 91.4748 286.676 91.1535 286.751 90.9115C286.828 90.6647 287.352 88.9739 287.804 87.8544C291.027 79.8748 290.818 79.7891 292.182 77.2248C294.474 72.9137 293.376 70.4448 297.292 70.5786C298.425 70.6171 300.052 70.2533 300.945 71.9457C304.061 77.8507 304.955 82.3285 307.513 87.0756ZM299.176 80.4494C298.275 79.0334 298.574 77.9541 297.149 78.6608C296.534 78.9661 296.682 79.0983 296.41 79.7314C295.519 81.794 294.545 83.7156 298.088 83.6122C300.662 83.5361 299.28 80.8316 299.176 80.4494Z" fill="#05B03C"/>
<path fill-rule="evenodd" clip-rule="evenodd" d="M262.633 92.41C260.622 93.9421 260.441 93.6993 255.498 93.6913C253.36 93.6881 253.299 93.6528 251.587 92.3819C250.047 91.2384 247.78 91.571 249.299 87.8809C249.369 87.7102 250.042 86.0755 250.62 85.9994C251.337 85.904 251.323 86.0499 251.785 86.6068C253.181 88.2896 255.643 88.1381 257.91 88.207C258.104 88.2134 259.811 88.2655 260.303 87.7711C260.995 87.0764 260.651 84.6956 257.954 84.2925C257.414 84.2124 255.585 84.6195 251.396 82.3197C248.779 80.8837 246.682 75.373 252.171 71.5843C255.458 69.3165 264.079 70.6564 264.887 71.9433C265.334 72.6549 264.843 76.6351 261.881 75.9315C261.83 75.9187 259.403 74.881 256.349 75.2432C254.107 75.5092 253.197 78.1952 257.851 79.2089C260.587 79.8043 260.574 79.8372 263.57 81.3076C265.009 82.0144 267.993 85.1708 265.435 89.5484C264.407 91.3098 264.283 91.2144 262.633 92.41Z" fill="#05B03C"/>
<path fill-rule="evenodd" clip-rule="evenodd" d="M151.37 56.5362C151.379 56.9272 151.464 60.885 151.318 61.4251C151.079 62.3178 150.408 62.4372 150.293 62.458C149.58 62.5846 146.753 62.6471 146.207 62.1246C145.556 61.502 145.863 61.3225 145.821 42.9136C145.816 40.4487 145.315 39.4439 147.785 39.3958C148.809 39.3766 160.191 39.1554 160.586 39.3061C161.35 39.5969 161.293 39.73 161.361 40.5345C161.405 41.0634 161.483 41.5882 161.532 42.1163C161.762 44.5852 160.729 44.3167 158.249 44.2871C153.384 44.2286 151.846 43.9978 151.501 45.1958C151.432 45.4322 151.164 47.7072 152.029 48.1735C152.92 48.6543 158.861 48.0277 159.784 48.6343C160.384 49.0286 160.412 50.0086 160.416 50.1384C160.421 50.3235 160.474 52.1337 160.351 52.4518C159.869 53.7027 159.589 53.5456 158.243 53.5264C155.142 53.4815 152.079 53.1145 151.651 54.024C151.565 54.2075 151.464 54.4231 151.37 56.5362Z" fill="#001D4C"/>
<path fill-rule="evenodd" clip-rule="evenodd" d="M201.632 62.5077C201.354 62.466 201.067 62.5037 200.789 62.462C200.63 62.438 200.648 62.4299 199.334 61.9291C198.149 61.4772 198.144 61.8794 196.874 62.2841C194.599 63.0077 192.523 61.9483 192.187 61.7777C190.084 60.7047 189.891 60.1382 189.762 58.9185C189.272 54.3077 190.687 53.6234 191.161 53.2852C194.182 51.1288 196.937 51.5022 197.781 51.2731C198.648 51.0375 198.797 50.9397 198.641 50.0551C198.469 49.0822 195.509 49.4292 195.234 49.4613C192.461 49.785 192.054 50.7346 190.703 49.0678C190.516 48.837 189.243 47.2664 192.196 45.6702C196.059 43.5811 199.003 44.3752 201.672 46.0853C203.709 47.3914 204.308 51.5207 204.326 51.6962C204.425 52.653 204.408 60.1654 204.394 60.5572C204.31 62.9845 203.116 62.5501 201.632 62.5077ZM196.844 58.481C197.94 58.13 198.283 58.493 198.661 57.4241C198.996 56.4753 198.717 55.7196 198.666 55.5818C198.346 54.7132 196.291 55.1988 196.089 55.2469C194.278 55.6748 194.77 57.2718 194.829 57.4665C195.201 58.6733 195.617 58.2366 196.844 58.481Z" fill="#001D4C"/>
<path fill-rule="evenodd" clip-rule="evenodd" d="M261.118 62.5141C259.891 62.4211 259.902 62.4588 258.691 62.208C256.912 61.8386 256.932 62.6126 254.69 62.5245C253.836 62.4908 252.24 62.9636 250.02 60.4074C247.501 57.5082 249.418 53.3389 251.453 52.4799C255.685 50.6953 257.95 51.9366 258.459 50.7955C259.108 49.3379 256.51 49.3226 256.301 49.3218C252.113 49.2986 251.285 50.9277 250.507 49.4236C249.499 47.4748 249.402 46.8986 251.419 45.9987C255.332 44.2526 255.506 43.8376 259.543 45.2415C261.101 45.784 261.808 45.699 262.746 47.7136C263.181 48.6463 263.911 50.2145 263.608 60.5444C263.532 63.0982 261.737 62.4532 261.118 62.5141ZM255.539 55.2236C255.298 55.3021 255.023 55.2196 254.782 55.2981C252.481 56.0458 254.553 58.6028 256.336 58.4441C258.393 58.2606 259.593 55.0097 257.101 55.0786C256.579 55.093 256.062 55.2092 255.539 55.2236Z" fill="#001D4C"/>
<path fill-rule="evenodd" clip-rule="evenodd" d="M204.778 92.2529C204.559 92.2617 204.345 92.1696 204.126 92.1784C203.538 92.2016 200.377 93.2682 200.636 90.2007C200.873 87.3921 200.55 87.4025 200.55 84.5802C200.55 81.7652 200.815 81.7772 200.616 78.9677C200.46 76.7513 200.574 71.8576 200.611 71.7013C201.029 69.9712 204.896 70.5346 205.289 71.2061C205.842 72.1516 205.262 80.3212 205.589 80.6313C205.68 80.7178 206.238 81.2483 207.151 80.4293C207.242 80.3468 209.673 76.6439 213.688 76.3081C217.228 76.0124 214.585 78.7474 214.435 78.9028C211.029 82.4287 210.021 82.7332 211.58 85.2077C212.132 86.0843 212.725 86.5162 213.41 87.933C214.03 89.2135 213.921 89.2672 214.601 90.119C215.166 90.8266 215.191 90.8065 215.253 91.0037C215.506 91.8114 215.217 92.2073 215.214 92.3026C215.027 92.3082 214.851 92.1856 214.665 92.192C214.161 92.2073 214.192 92.3242 213.695 92.3491C213.507 92.3587 213.521 92.3411 211.354 92.2401C209.589 91.0149 209.526 91.0437 208.44 89.179C208.365 89.0508 207.647 87.82 207.332 87.6854C205.757 87.0122 205.509 87.6685 205.468 89.3818C205.432 90.9107 205.693 91.0229 204.778 92.2529Z" fill="#001D4C"/>
<path fill-rule="evenodd" clip-rule="evenodd" d="M211.724 57.3311C211.713 59.4242 212.017 62.2032 210.586 62.4708C210.321 62.5205 208.058 62.9452 207.222 62.2056C206.53 61.5926 206.894 61.4002 206.781 48.5205C206.77 47.2087 206.513 47.1454 207.138 46.0019C207.735 44.9097 211.933 46.1109 212.781 45.8128C215.068 45.0099 216.213 42.4473 220.773 47.0781C222.884 49.2201 222.463 49.5839 222.488 54.1314C222.526 61.1254 223.053 62.2024 220.987 62.5037C217.919 62.9508 217.599 61.6735 217.529 61.3922C217.375 60.7784 217.602 51.7378 217.326 51.0511C216.567 49.168 213.943 49.0117 212.83 50.8788C211.516 53.0841 211.743 54.4503 211.724 57.3311Z" fill="#001D4C"/>
<path fill-rule="evenodd" clip-rule="evenodd" d="M174.32 62.5766C172.44 62.2128 171.959 62.7192 171.598 61.4331C171.469 60.9699 171.559 48.8122 171.567 47.7144C171.578 46.3112 171.4 45.9859 172.753 45.558C172.774 45.5516 172.759 45.554 175.129 45.5075C178.513 45.441 178.599 44.7326 179.942 44.4986C180.694 44.368 187.384 44.5636 187.368 53.3269C187.353 61.3938 187.482 62.0485 185.637 62.4524C184.354 62.732 183.256 62.5397 183.053 62.5045C181.758 62.2777 182.004 61.7985 182.375 60.5468C182.617 59.7247 183.063 54.6515 182.228 52.5856C181.358 50.4309 181.519 50.3788 181.412 50.2081C180.769 49.1696 178.603 49.4388 177.493 50.0679C175.794 51.0303 176.596 56.4288 176.428 60.5372C176.37 61.9411 176.457 62.2544 175.086 62.5686C174.838 62.6255 174.569 62.5197 174.32 62.5766Z" fill="#001D4C"/>
<path fill-rule="evenodd" clip-rule="evenodd" d="M219.412 92.2121C217.631 90.9716 217.491 91.0878 216.346 89.2608C215.534 87.965 215.776 87.1493 215.665 82.98C215.615 81.1169 216.029 80.0856 218.448 78.0735C221.436 75.5885 223.701 76.4259 224.142 76.5886C227.398 77.7914 227.357 77.8899 227.481 78.0759C229.297 80.7771 230.447 86.0731 228.209 86.364C227.887 86.4057 227.899 86.0971 224.15 86.2117C222.932 86.2494 222.949 86.2117 221.745 86.2422C221.591 86.2462 220.021 86.2863 219.964 86.9498C219.779 89.0989 225.989 87.9995 226.394 88.0668C227.165 88.1966 229.45 89.9876 226.534 91.7505C226.071 92.031 226.099 92.0486 225.646 92.3587C222.511 94.6048 222.239 93.2201 220.923 92.6248C220.808 92.5735 220.811 92.5943 219.412 92.2121ZM222.543 83.3189C222.81 83.3358 223.075 83.3646 223.342 83.3806C225.562 83.5201 225.508 82.2019 224.212 81.3116C222.68 80.2579 222.429 80.2587 220.927 81.3677C220.334 81.8052 219.008 83.3149 221.699 83.3414C221.98 83.3438 222.262 83.3165 222.543 83.3189Z" fill="#001D4C"/>
<path fill-rule="evenodd" clip-rule="evenodd" d="M183.034 92.196C178.664 92.3739 178.153 92.278 177.798 92.4118C177.5 92.5 175.431 93.4527 174 93C172.716 92.5938 171.599 90.974 171.398 90.736C170.591 89.78 169.515 84.565 173.475 83.6507C175.962 83.0769 178.525 83.5866 178.963 82.8646C179.376 82.1827 178.493 80.1152 176.695 80.3917C175.537 80.5696 173.053 82.722 171.575 80.8372C171.113 80.2491 171.382 79.9718 171.393 79.7987C171.405 79.6032 171.285 79.3884 171.37 79.2129C171.506 78.9285 174.905 75.014 179.113 76.6359C182.997 78.1328 183.331 80.0712 183.41 80.5279C183.541 81.2892 183.31 81.2924 183.595 90.1887C183.629 91.2577 183.464 91.2216 183.034 92.196ZM176.775 86.5042C176.46 86.622 176.108 86.6172 175.794 86.735C173.915 87.4386 175.642 90.0172 178.173 89.0476C179.076 88.7015 180.706 86.3151 177.544 86.4497C177.287 86.4609 177.031 86.4938 176.775 86.5042Z" fill="#001D4C"/>
<path fill-rule="evenodd" clip-rule="evenodd" d="M232.183 62.5053C230.775 62.345 230.711 62.5389 228.22 61.256C227.811 61.0444 225.83 60.0244 224.93 56.5426C224.476 54.7829 224.685 51.1152 224.72 50.8804C224.771 50.5423 224.937 49.4212 226.849 47.1671C227.082 46.8922 227.795 46.0516 230.715 44.84C234.073 43.4481 239.48 46.4403 239.385 48.5189C239.344 49.4308 239.133 49.3531 238.506 50.015C236.279 52.3661 235.327 50.2281 233.695 49.6119C232.531 49.1728 230.659 49.7978 230.132 50.4253C229.517 51.1569 228.072 56.9913 232.177 57.4641C235.068 57.7967 235.87 56.3607 236.092 56.2918C237.616 55.8142 241.465 57.9281 237.871 60.6077C234.661 63.0005 232.601 62.4981 232.183 62.5053Z" fill="#001D4C"/>
<path fill-rule="evenodd" clip-rule="evenodd" d="M150.317 92.2802C149.558 90.4884 149.733 90.4411 149.727 85.3824C149.717 77.664 149.752 77.0886 149.338 76.623C149.179 76.4452 148.951 76.3169 148.719 76.2641C148.131 76.1286 147.513 76.1847 146.922 76.0685C145.53 75.7953 145.657 73.8897 145.658 73.3641C145.664 71.6091 146.031 71.4409 147.79 71.424C158.217 71.3215 158.228 71.2542 159.114 71.4449C160.485 71.7398 160.462 72.8328 160.496 74.1686C160.501 74.3537 160.547 76.1495 159.892 76.4027C159.627 76.5053 159.349 76.22 159.067 76.1951C158.842 76.1751 156.837 76.139 156.644 76.135C154.781 76.1014 154.687 77.1575 154.665 78.1544C154.644 79.1168 154.725 79.1128 154.65 90.1863C154.643 91.2665 154.519 91.232 154.084 92.2393C152.204 92.4477 152.214 92.3811 150.317 92.2802Z" fill="#001D4C"/>
<path fill-rule="evenodd" clip-rule="evenodd" d="M198.412 81.3469C196.979 82.3141 196.822 82.9335 195.417 81.9158C189.492 77.6255 189.198 87.9899 192.026 88.1974C192.571 88.2375 193.114 88.0892 193.657 88.0235C194.422 87.9314 194.455 88.0139 195.078 87.5708C195.58 87.2142 195.651 86.4409 197.491 87.3063C197.617 87.3664 198.875 87.9586 199.031 88.1405C199.164 88.2952 198.859 88.5163 198.841 88.7183C198.827 88.8769 198.973 89.03 198.94 89.1855C198.934 89.2167 198.053 90.6639 195.874 92.2425C195.058 92.6953 195.107 92.7369 194.314 93.2161C193.546 93.6801 192.903 93.5863 192.778 93.5679C192.573 93.5383 192.34 93.5038 190.5 92.3435C189.729 91.8571 189.703 91.9444 188.899 91.5414C188.534 91.3466 186.066 90.5974 185.746 86.1693C185.418 81.6418 186.035 79.1216 190.526 76.8346C193.964 75.0837 197.799 77.6952 198.402 78.991C198.826 79.9013 198.88 79.8764 198.877 79.963C198.877 79.963 198.449 81.2363 198.412 81.3469Z" fill="#001D4C"/>
<path fill-rule="evenodd" clip-rule="evenodd" d="M269.163 38.532C269.861 38.6065 271.547 37.967 271.619 40.5072C271.67 42.303 271.702 60.627 271.55 61.3385C271.366 62.2008 270.53 62.7553 268.314 62.4844C267.274 62.3578 266.613 62.2192 266.581 60.5468C266.56 59.4234 266.553 44.324 266.553 42.9128C266.553 42.654 266.552 39.8165 266.583 39.6731C266.893 38.2387 268.901 38.548 269.163 38.532Z" fill="#001D4C"/>
<path fill-rule="evenodd" clip-rule="evenodd" d="M162.274 92.3411C161.198 91.8499 160.783 92.1704 160.567 91.0077C160.543 90.8843 160.531 78.3499 160.564 78.1632C161.067 75.2456 165.921 77.1327 167.141 76.8402C167.666 76.7144 168.141 76.4187 168.669 76.3073C168.779 76.2849 169.745 76.0814 169.999 76.7336C170.171 77.18 169.641 78.2337 169.512 78.9725C169.267 80.3701 169.46 80.3909 169.401 80.4983C168.799 81.5809 166.473 81.1161 165.809 83.0625C165.507 83.948 165.988 90.869 165.351 91.6944C165.156 91.9452 164.819 92.0622 164.626 92.3138C163.841 92.3227 163.058 92.3323 162.274 92.3411Z" fill="#001D4C"/>
<path fill-rule="evenodd" clip-rule="evenodd" d="M232.3 92.2449C231.025 89.3722 232.103 89.1999 231.681 79.7578C231.577 77.438 230.637 76.3266 232.963 76.2296C235.384 76.1278 235.493 77.083 235.61 77.18C235.773 77.313 235.999 77.341 236.186 77.4372C236.388 77.5406 236.548 77.7834 236.775 77.7762C236.899 77.7722 236.613 77.442 237.877 76.6783C240.448 75.123 240.556 77.9076 240.565 78.152C240.679 81.1017 240.048 81.0945 238.619 81.3757C236.877 81.7195 236.663 82.625 236.155 85.3751C235.871 86.9145 236.127 90.8939 235.812 91.5902C235.784 91.6535 235.775 91.6431 235.318 92.2994C233.799 92.3659 233.813 92.3667 232.3 92.2449Z" fill="#001D4C"/>
<path fill-rule="evenodd" clip-rule="evenodd" d="M244.245 62.579C242.341 62.1944 241.852 62.6856 241.543 61.4235C241.482 61.1727 241.506 54.7108 241.508 54.1274C241.539 46.2287 241.551 45.9891 242.092 45.687C242.583 45.413 244.781 45.5604 245.015 45.5764C245.288 45.5949 246.351 45.6005 246.523 46.9371C246.662 48.0157 246.524 48.0165 246.519 60.5396C246.518 63.0229 244.993 62.4484 244.245 62.579Z" fill="#001D4C"/>
<path fill-rule="evenodd" clip-rule="evenodd" d="M163.495 54.133C163.514 47.8626 163.46 46.659 163.769 46.0492C164.111 45.3737 167.346 45.2551 168.059 45.9659C168.594 46.4988 168.435 48.3001 168.432 49.3226C168.4 60.4018 168.576 61.591 167.934 62.1984C167.173 62.9196 164.859 62.486 164.596 62.4372C164.469 62.4131 163.749 62.2785 163.465 61.2897C163.364 60.9363 163.484 54.7052 163.495 54.133Z" fill="#001D4C"/>
<path fill-rule="evenodd" clip-rule="evenodd" d="M241.484 40.5104C241.548 40.2268 241.502 39.9247 241.567 39.641C241.899 38.177 243.916 36.5102 246.153 38.5809C246.998 39.3637 248.103 40.3838 246.569 42.033C244.603 44.1461 241.992 43.1083 241.573 41.3807C241.505 41.097 241.552 40.7941 241.484 40.5104Z" fill="#001D4C"/>
<path fill-rule="evenodd" clip-rule="evenodd" d="M166.297 43.1925C166.011 43.142 165.715 43.1869 165.429 43.1356C163.485 42.7886 163.359 41.3975 163.338 41.1691C163.197 39.621 162.959 39.4407 164.106 38.3805C165.277 37.2987 168.891 36.9926 168.428 41.2749C168.211 43.2862 166.444 43.1476 166.297 43.1925Z" fill="#001D4C"/>
</g>
<defs>
<clipPath id="clip0_144_306">
<rect width="309" height="94" fill="white"/>
</clipPath>
</defs>
</svg>
